# xmcd
#
# Track frame offsets: 
#        150
#        22125
#        55559
#        121457
#        141273
#        173363
#        211805
#        251146
#        283373
#        290626
#
# Disc length: 4346 seconds
#
# Revision: 0
# Processed by: cddbd v1.4PL0 Copyright (c) Steve Scherf et al.
# Submitted via: ExactAudioCopy v0.95a3
#
DISCID=9b10f80a
DTITLE=Dave Matthews Band - Listen Supported [CD2]
DYEAR=1999
DGENRE=Blues
TTITLE0=Too Much
TTITLE1=True Reflections
TTITLE2=Two Step
TTITLE3=Granny
TTITLE4=Stay (Wasting Time)
TTITLE5=#40
TTITLE6=Long Black Veil
TTITLE7=Don't Drink the Water
TTITLE8=Intro to...
TTITLE9=All Along the Watchtower
EXTD=
EXTT0=
EXTT1=
EXTT2=
EXTT3=
EXTT4=
EXTT5=
EXTT6=
EXTT7=
EXTT8=
EXTT9=
PLAYORDER=
